<svg width="25" height="24" viewBox="0 0 25 24" fill="none" xmlns="http://www.w3.org/2000/svg">
<g id="wrapper">
<path id="Vector" d="M22.5 7.82001C22.5048 7.75677 22.5048 7.69325 22.5 7.63001L20.5 2.63001C20.4219 2.43237 20.2828 2.26475 20.103 2.15147C19.9232 2.03819 19.712 1.98514 19.5 2.00001H5.5C5.29972 1.99982 5.104 2.05977 4.93818 2.17209C4.77237 2.28442 4.6441 2.44395 4.57 2.63001L2.57 7.63001C2.56518 7.69325 2.56518 7.75677 2.57 7.82001C2.53677 7.87568 2.51311 7.93652 2.5 8.00001C2.51113 8.69125 2.70123 9.36781 3.05174 9.96369C3.40226 10.5596 3.90124 11.0544 4.5 11.4V21C4.5 21.2652 4.60536 21.5196 4.79289 21.7071C4.98043 21.8947 5.23478 22 5.5 22H19.5C19.7652 22 20.0196 21.8947 20.2071 21.7071C20.3946 21.5196 20.5 21.2652 20.5 21V11.44C21.1046 11.091 21.6072 10.5898 21.9581 9.98635C22.309 9.38287 22.4958 8.69807 22.5 8.00001C22.5094 7.94038 22.5094 7.87965 22.5 7.82001ZM13.5 20H11.5V16H13.5V20ZM18.5 20H15.5V15C15.5 14.7348 15.3946 14.4804 15.2071 14.2929C15.0196 14.1054 14.7652 14 14.5 14H10.5C10.2348 14 9.98043 14.1054 9.79289 14.2929C9.60536 14.4804 9.5 14.7348 9.5 15V20H6.5V12C7.06947 11.9968 7.63169 11.872 8.14905 11.634C8.66642 11.3961 9.127 11.0503 9.5 10.62C9.87537 11.0456 10.337 11.3865 10.8542 11.62C11.3715 11.8535 11.9325 11.9743 12.5 11.9743C13.0675 11.9743 13.6285 11.8535 14.1458 11.62C14.663 11.3865 15.1246 11.0456 15.5 10.62C15.873 11.0503 16.3336 11.3961 16.8509 11.634C17.3683 11.872 17.9305 11.9968 18.5 12V20ZM18.5 10C17.9696 10 17.4609 9.7893 17.0858 9.41423C16.7107 9.03915 16.5 8.53045 16.5 8.00001C16.5 7.7348 16.3946 7.48044 16.2071 7.29291C16.0196 7.10537 15.7652 7.00001 15.5 7.00001C15.2348 7.00001 14.9804 7.10537 14.7929 7.29291C14.6054 7.48044 14.5 7.7348 14.5 8.00001C14.5 8.53045 14.2893 9.03915 13.9142 9.41423C13.5391 9.7893 13.0304 10 12.5 10C11.9696 10 11.4609 9.7893 11.0858 9.41423C10.7107 9.03915 10.5 8.53045 10.5 8.00001C10.5 7.7348 10.3946 7.48044 10.2071 7.29291C10.0196 7.10537 9.76522 7.00001 9.5 7.00001C9.23478 7.00001 8.98043 7.10537 8.79289 7.29291C8.60536 7.48044 8.5 7.7348 8.5 8.00001C8.50985 8.26266 8.46787 8.52467 8.37646 8.77109C8.28505 9.01751 8.146 9.24351 7.96725 9.43619C7.78849 9.62887 7.57354 9.78446 7.33466 9.89407C7.09578 10.0037 6.83764 10.0652 6.575 10.075C6.04457 10.0949 5.52796 9.90327 5.13882 9.54226C4.94614 9.36351 4.79055 9.14855 4.68094 8.90967C4.57133 8.67079 4.50985 8.41266 4.5 8.15001L6.18 4.00001H18.82L20.5 8.15001C20.4621 8.65403 20.2348 9.125 19.8637 9.46822C19.4927 9.81143 19.0054 10.0014 18.5 10Z" fill="#868687"/>
</g>
</svg>
